<svg id="Capa_1" enable-background="new 0 0 512 512" height="512" viewBox="0 0 512 512" width="512" xmlns="http://www.w3.org/2000/svg"><path d="m497 316c-8.284 0-15 6.716-15 15 0 8.271-6.729 15-15 15s-15-6.729-15-15c0-6.925 0-143.1 0-150 0-.007-.001-.015-.001-.022-.005-3.762-1.478-7.391-3.886-10.053-44.001-48.511-121.176-94.925-192.113-94.925-71.316 0-149.085 47.487-192.113 94.925-2.378 2.629-3.88 6.257-3.886 10.053 0 .007-.001.015-.001.022v150c0 8.271-6.729 15-15 15s-15-6.729-15-15c0-8.284-6.716-15-15-15s-15 6.716-15 15c0 24.813 20.187 45 45 45 11.517 0 22.032-4.354 30-11.495 7.968 7.141 18.483 11.495 30 11.495 24.813 0 45-20.187 45-45 0-8.284-6.716-15-15-15s-15 6.716-15 15c0 8.271-6.729 15-15 15s-15-6.729-15-15c0-12.623 0-99.985 0-115.333 42.45 35.919 95.59 65.053 151 69.689v105.644c0 8.271-6.729 15-15 15s-15-6.729-15-15c0-8.284-6.716-15-15-15s-15 6.716-15 15c0 24.813 20.187 45 45 45 11.517 0 22.032-4.354 30-11.495 7.968 7.142 18.483 11.495 30 11.495 24.813 0 45-20.187 45-45 0-8.284-6.716-15-15-15s-15 6.716-15 15c0 8.271-6.729 15-15 15s-15-6.729-15-15v-105.645c55.507-4.644 108.671-33.871 151-69.689v115.333c0 8.271-6.729 15-15 15s-15-6.729-15-15c0-8.284-6.716-15-15-15s-15 6.716-15 15c0 24.813 20.187 45 45 45 11.517 0 22.032-4.354 30-11.495 7.968 7.142 18.483 11.495 30 11.495 24.813 0 45-20.187 45-45 0-8.283-6.716-14.999-15-14.999zm-166-192.62v115.299c-9.552 4.265-19.59 8-30 10.898v-137.125c10.405 2.908 20.443 6.653 30 10.928zm-60-16.63v148.503c-4.95.482-9.953.746-15 .746-5.046 0-10.048-.265-15-.75v-148.503c4.95-.482 9.953-.746 15-.746 5.046 0 10.048.265 15 .75zm-174.758 74.234c18.8-17.707 62.007-53.871 114.758-68.562v137.126c-52.657-14.718-95.934-50.879-114.758-68.564zm264.758 41.87v-83.63c24.552 14.941 43.797 31.495 54.758 41.792-10.95 10.314-30.184 26.89-54.758 41.838z"/><circle cx="166" cy="181" r="15"/></svg>