<svg height="512pt" viewBox="0 -49 512.001 512" width="512pt" xmlns="http://www.w3.org/2000/svg"><path d="m36.421875 132.023438c-4.210937 0-7.625 3.410156-7.625 7.621093v238.066407c0 4.207031 3.414063 7.621093 7.625 7.621093h302.378906c4.207031 0 7.621094-3.414062 7.621094-7.621093v-238.066407c0-4.207031-3.414063-7.621093-7.621094-7.621093zm78.984375 238.066406h-71.363281v-6.136719l72.855469-105.183594 37.363281 54.570313c-3.902344 5.699218-35.015625 51.140625-38.855469 56.75zm215.769531 0h-197.292969l113.371094-165.589844 83.925782 122.703125v42.886719zm0-69.886719-71.605469-104.695313c-2.785156-4.066406-7.386718-6.492187-12.316406-6.492187-4.933594 0-9.535156 2.425781-12.320312 6.492187l-71.4375 104.339844-34.277344-50.070312c-2.785156-4.066406-7.390625-6.492188-12.316406-6.492188 0 0 0 0-.003906 0-4.925782 0-9.53125 2.425782-12.292969 6.460938l-60.566407 87.4375v-189.917969h287.136719zm0 0"/><path d="m165.773438 231.359375c19.421874 0 35.222656-15.800781 35.222656-35.222656s-15.800782-35.222657-35.222656-35.222657c-19.421876 0-35.222657 15.800782-35.222657 35.222657s15.800781 35.222656 35.222657 35.222656zm0-55.203125c11.015624 0 19.980468 8.964844 19.980468 19.980469s-8.964844 19.976562-19.980468 19.976562c-11.015626 0-19.976563-8.960937-19.976563-19.976562s8.960937-19.980469 19.976563-19.980469zm0 0"/><path d="m13.613281 87.90625c4.210938 0 7.625-3.414062 7.625-7.625v-.507812c0-4.207032-3.414062-7.621094-7.625-7.621094-4.207031 0-7.621093 3.414062-7.621093 7.621094v.507812c0 4.210938 3.414062 7.625 7.621093 7.625zm0 0"/><path d="m13.613281 51.828125c4.210938 0 7.625-3.410156 7.625-7.621094v-.507812c0-4.210938-3.414062-7.621094-7.625-7.621094-4.207031 0-7.621093 3.410156-7.621093 7.621094v.507812c0 4.210938 3.414062 7.621094 7.621093 7.621094zm0 0"/><path d="m13.613281 15.753906c4.210938 0 7.625-3.414062 7.625-7.621094v-.507812c0-4.210938-3.414062-7.625-7.625-7.625-4.207031 0-7.621093 3.414062-7.621093 7.625v.507812c0 4.207032 3.414062 7.621094 7.621093 7.621094zm0 0"/><path d="m202.597656 15.246094h.507813c4.207031 0 7.621093-3.414063 7.621093-7.625 0-4.207032-3.414062-7.621094-7.621093-7.621094h-.507813c-4.210937 0-7.625 3.414062-7.625 7.621094 0 4.210937 3.414063 7.625 7.625 7.625zm0 0"/><path d="m89.933594 15.246094h.507812c4.210938 0 7.625-3.414063 7.625-7.625 0-4.207032-3.414062-7.621094-7.625-7.621094h-.507812c-4.207032 0-7.621094 3.414062-7.621094 7.621094 0 4.210937 3.414062 7.625 7.621094 7.625zm0 0"/><path d="m127.488281 15.246094h.507813c4.210937 0 7.621094-3.414063 7.621094-7.625 0-4.207032-3.410157-7.621094-7.621094-7.621094h-.507813c-4.210937 0-7.621093 3.414062-7.621093 7.621094 0 4.210937 3.410156 7.625 7.621093 7.625zm0 0"/><path d="m165.042969 15.246094h.507812c4.210938 0 7.621094-3.414063 7.621094-7.625 0-4.207032-3.410156-7.621094-7.621094-7.621094h-.507812c-4.210938 0-7.621094 3.414062-7.621094 7.621094 0 4.210937 3.410156 7.625 7.621094 7.625zm0 0"/><path d="m240.148438 15.246094h.507812c4.210938 0 7.625-3.414063 7.625-7.625 0-4.207032-3.414062-7.621094-7.625-7.621094h-.507812c-4.207032 0-7.621094 3.414062-7.621094 7.621094 0 4.210937 3.414062 7.625 7.621094 7.625zm0 0"/><path d="m52.382812 15.246094h.507813c4.207031 0 7.621094-3.414063 7.621094-7.625 0-4.207032-3.414063-7.621094-7.621094-7.621094h-.507813c-4.210937 0-7.625 3.414062-7.625 7.621094 0 4.210937 3.414063 7.625 7.625 7.625zm0 0"/><path d="m465.472656 15.246094h.507813c4.210937 0 7.621093-3.414063 7.621093-7.625 0-4.207032-3.410156-7.621094-7.621093-7.621094h-.507813c-4.210937 0-7.621094 3.414062-7.621094 7.621094 0 4.210937 3.410157 7.625 7.621094 7.625zm0 0"/><path d="m277.703125 15.246094h.507813c4.210937 0 7.625-3.414063 7.625-7.625 0-4.207032-3.414063-7.621094-7.625-7.621094h-.507813c-4.210937 0-7.621094 3.414062-7.621094 7.621094 0 4.210937 3.410157 7.625 7.621094 7.625zm0 0"/><path d="m427.917969 15.246094h.507812c4.210938 0 7.625-3.414063 7.625-7.625 0-4.207032-3.414062-7.621094-7.625-7.621094h-.507812c-4.207031 0-7.621094 3.414062-7.621094 7.621094 0 4.210937 3.414063 7.625 7.621094 7.625zm0 0"/><path d="m315.257812 15.246094h.507813c4.210937 0 7.621094-3.414063 7.621094-7.625 0-4.207032-3.410157-7.621094-7.621094-7.621094h-.507813c-4.210937 0-7.621093 3.414062-7.621093 7.621094 0 4.210937 3.410156 7.625 7.621093 7.625zm0 0"/><path d="m352.8125 15.246094h.507812c4.207032 0 7.621094-3.414063 7.621094-7.625 0-4.207032-3.414062-7.621094-7.621094-7.621094h-.507812c-4.210938 0-7.625 3.414062-7.625 7.621094 0 4.210937 3.414062 7.625 7.625 7.625zm0 0"/><path d="m390.363281 15.246094h.507813c4.210937 0 7.625-3.414063 7.625-7.625 0-4.207032-3.414063-7.621094-7.625-7.621094h-.507813c-4.207031 0-7.621093 3.414062-7.621093 7.621094 0 4.210937 3.414062 7.625 7.621093 7.625zm0 0"/><path d="m502.917969 190.835938c4.210937 0 7.621093-3.410157 7.621093-7.621094v-.507813c0-4.207031-3.410156-7.621093-7.621093-7.621093-4.207031 0-7.621094 3.410156-7.621094 7.621093v.507813c0 4.210937 3.414063 7.621094 7.621094 7.621094zm0 0"/><path d="m502.917969 154.761719c4.210937 0 7.621093-3.414063 7.621093-7.621094v-.507813c0-4.210937-3.410156-7.625-7.621093-7.625-4.207031 0-7.621094 3.414063-7.621094 7.625v.507813c0 4.207031 3.414063 7.621094 7.621094 7.621094zm0 0"/><path d="m502.917969 118.683594c4.210937 0 7.621093-3.410156 7.621093-7.621094v-.507812c0-4.207032-3.410156-7.621094-7.621093-7.621094-4.207031 0-7.621094 3.410156-7.621094 7.621094v.507812c0 4.210938 3.414063 7.621094 7.621094 7.621094zm0 0"/><path d="m502.917969 46.535156c4.210937 0 7.621093-3.414062 7.621093-7.621094v-.507812c0-4.210938-3.410156-7.625-7.621093-7.625-4.207031 0-7.621094 3.414062-7.621094 7.625v.507812c0 4.207032 3.414063 7.621094 7.621094 7.621094zm0 0"/><path d="m502.917969 15.753906c4.210937 0 7.621093-3.414062 7.621093-7.621094v-.507812c0-4.210938-3.410156-7.625-7.621093-7.625-4.207031 0-7.621094 3.414062-7.621094 7.625v.507812c0 4.207032 3.414063 7.621094 7.621094 7.621094zm0 0"/><path d="m502.917969 226.914062c4.210937 0 7.621093-3.414062 7.621093-7.625v-.507812c0-4.207031-3.410156-7.621094-7.621093-7.621094-4.207031 0-7.621094 3.414063-7.621094 7.621094v.507812c0 4.210938 3.414063 7.625 7.621094 7.625zm0 0"/><path d="m502.917969 299.066406c4.210937 0 7.621093-3.414062 7.621093-7.625v-.507812c0-4.207032-3.410156-7.621094-7.621093-7.621094-4.207031 0-7.621094 3.410156-7.621094 7.621094v.507812c0 4.210938 3.414063 7.625 7.621094 7.625zm0 0"/><path d="m502.917969 335.140625c4.210937 0 7.621093-3.414063 7.621093-7.625v-.507813c0-4.207031-3.410156-7.621093-7.621093-7.621093-4.207031 0-7.621094 3.414062-7.621094 7.621093v.507813c0 4.210937 3.414063 7.625 7.621094 7.625zm0 0"/><path d="m502.917969 371.214844c4.210937 0 7.621093-3.410156 7.621093-7.621094v-.507812c0-4.210938-3.410156-7.621094-7.621093-7.621094-4.207031 0-7.621094 3.410156-7.621094 7.621094v.507812c0 4.210938 3.414063 7.621094 7.621094 7.621094zm0 0"/><path d="m502.917969 82.609375c4.210937 0 7.621093-3.410156 7.621093-7.621094v-.507812c0-4.210938-3.410156-7.621094-7.621093-7.621094-4.207031 0-7.621094 3.410156-7.621094 7.621094v.507812c0 4.210938 3.414063 7.621094 7.621094 7.621094zm0 0"/><path d="m502.917969 262.988281c4.210937 0 7.621093-3.410156 7.621093-7.621093v-.507813c0-4.210937-3.410156-7.621094-7.621093-7.621094-4.207031 0-7.621094 3.410157-7.621094 7.621094v.507813c0 4.210937 3.414063 7.621093 7.621094 7.621093zm0 0"/><path d="m431.71875 407.136719h.507812c4.210938 0 7.621094-3.410157 7.621094-7.621094s-3.410156-7.621094-7.621094-7.621094h-.507812c-4.210938 0-7.621094 3.410157-7.621094 7.621094s3.414063 7.621094 7.621094 7.621094zm0 0"/><path d="m467.796875 407.136719h.507813c4.207031 0 7.621093-3.410157 7.621093-7.621094s-3.414062-7.621094-7.621093-7.621094h-.507813c-4.210937 0-7.625 3.410157-7.625 7.621094s3.414063 7.621094 7.625 7.621094zm0 0"/><path d="m395.644531 407.136719h.507813c4.210937 0 7.621094-3.410157 7.621094-7.621094s-3.410157-7.621094-7.621094-7.621094h-.507813c-4.210937 0-7.621093 3.410157-7.621093 7.621094s3.410156 7.621094 7.621093 7.621094zm0 0"/><path d="m504.378906 391.894531h-.507812c-4.210938 0-7.621094 3.410157-7.621094 7.621094s3.410156 7.621094 7.621094 7.621094h.507812c4.210938 0 7.621094-3.410157 7.621094-7.621094s-3.410156-7.621094-7.621094-7.621094zm0 0"/><path d="m199.066406 118.46875h160.910156v126.714844c0 4.207031 3.410157 7.621094 7.621094 7.621094 4.210938 0 7.621094-3.414063 7.621094-7.621094v-126.929688c0-8.289062-6.738281-15.027344-15.027344-15.027344h-161.125c-4.210937 0-7.621094 3.410157-7.621094 7.621094 0 4.210938 3.410157 7.621094 7.621094 7.621094zm0 0"/><path d="m15.027344 414.128906h345.164062c8.285156 0 15.027344-6.742187 15.027344-15.027344v-118.351562c0-4.210938-3.410156-7.621094-7.621094-7.621094-4.210937 0-7.621094 3.410156-7.621094 7.621094v118.136719h-344.734374v-280.417969h148.253906c4.210937 0 7.625-3.410156 7.625-7.621094 0-4.210937-3.414063-7.621094-7.625-7.621094h-148.46875c-8.285156 0-15.027344 6.738282-15.027344 15.027344v280.847656c0 8.285157 6.742188 15.027344 15.027344 15.027344zm0 0"/></svg>