<svg width="512" height="512" xmlns="http://www.w3.org/2000/svg">
 <g>
  <title>background</title>
  <rect fill="none" id="canvas_background" height="514" width="514" y="-1" x="-1"/>
 </g>

 <g>
  <title>Layer 1</title>
  <g id="svg_1">
   <path id="svg_2" fill="#000000" class="active-path" d="m256,435.199216c-12.23828,-0.03125 -23.88672,5.25782 -31.91797,14.49219c18.69922,14.8125 45.13672,14.8125 63.83594,0c-8.03125,-9.23437 -19.67969,-14.52344 -31.91797,-14.49219zm0,0"/>
   <path id="svg_3" fill="#000000" class="active-path" d="m212.01563,437.636716c11.25,-12.41797 27.22656,-19.5039 43.98437,-19.5039s32.73438,7.08593 43.98438,19.5039c8.0664,-10.68359 13.20703,-23.28906 14.91015,-36.57031l-117.78906,0c1.70312,13.28125 6.84375,25.88672 14.91016,36.57031zm0,0"/>
   <path id="svg_4" fill="#000000" class="active-path" d="m197.48438,375.464846c-0.47266,2.82812 -0.79688,5.67578 -0.97266,8.53515l118.97656,0c-0.17578,-2.85937 -0.5,-5.70703 -0.97265,-8.53515l-117.03125,0zm0,0"/>
   <path id="svg_5" fill="#000000" class="active-path" d="m324.26563,17.066406l-136.53125,0c-4.71094,0.00781 -8.52735,3.82422 -8.53516,8.53516l0,119.46484l153.60156,0l0,-119.46484c-0.00781,-4.71094 -3.82422,-8.52735 -8.53515,-8.53516zm-93.86719,110.93359l-17.06641,0c-4.71094,0 -8.53125,-3.82031 -8.53125,-8.53515c0,-4.71094 3.82031,-8.53125 8.53125,-8.53125l17.06641,0c4.71484,0 8.53515,3.82031 8.53515,8.53125c0,4.71484 -3.82031,8.53515 -8.53515,8.53515zm17.0664,-51.19921c-0.00781,9.42187 -7.64453,17.05468 -17.0664,17.0664l-17.06641,0c-9.42187,-0.01172 -17.05469,-7.64453 -17.0664,-17.0664l0,-25.60157c0,-4.71093 3.82031,-8.53125 8.53515,-8.53125l34.13281,0c4.71094,0 8.53125,3.82032 8.53125,8.53125l0,25.60157zm51.20313,51.19921l-17.06641,0c-4.71484,0 -8.53515,-3.82031 -8.53515,-8.53515c0,-4.71094 3.82031,-8.53125 8.53515,-8.53125l17.06641,0c4.71094,0 8.53125,3.82031 8.53125,8.53125c0,4.71484 -3.82031,8.53515 -8.53125,8.53515zm17.06641,-51.19921c-0.01172,9.42187 -7.64454,17.05468 -17.06641,17.0664l-17.06641,0c-9.42187,-0.01172 -17.05859,-7.64453 -17.0664,-17.0664l0,-25.60157c0,-4.71093 3.82031,-8.53125 8.53125,-8.53125l34.13281,0c4.71484,0 8.53515,3.82032 8.53515,8.53125l0.00001,25.60157zm0,0"/>
   <path id="svg_6" fill="#000000" class="active-path" d="m204.80078,307.199216c0,4.71485 -3.82031,8.53516 -8.53515,8.53516c-4.71094,0 -8.53125,-3.82031 -8.53125,-8.53516c0,-4.71093 3.82031,-8.53125 8.53125,-8.53125c4.71484,0 8.53515,3.82032 8.53515,8.53125zm0,0"/>
   <path id="svg_7" fill="#000000" class="active-path" d="m213.33203,59.734376l17.06641,0l0,17.06641l-17.06641,0l0,-17.06641zm0,0"/>
   <path id="svg_8" fill="#000000" class="active-path" d="m281.60156,59.734376l17.06641,0l0,17.06641l-17.06641,0l0,-17.06641zm0,0"/>
   <path id="svg_9" fill="#000000" class="active-path" d="m324.26563,307.199216c0,4.71485 -3.82032,8.53516 -8.53125,8.53516c-4.71485,0 -8.53516,-3.82031 -8.53516,-8.53516c0,-4.71093 3.82031,-8.53125 8.53516,-8.53125c4.71093,0 8.53125,3.82032 8.53125,8.53125zm0,0"/>
   <path id="svg_10" fill="#000000" class="active-path" d="m358.39844,392.531246l0,-196.26562l-145.06641,0c-4.71094,0 -8.53125,-3.82031 -8.53125,-8.53125c0,-4.71484 3.82031,-8.53516 8.53125,-8.53516l145.06641,0l0,-17.0664l-204.79688,0l0,17.0664l25.59766,0c4.71484,0 8.53516,3.82032 8.53516,8.53516c0,4.71094 -3.82032,8.53125 -8.53516,8.53125l-25.59766,0l0,196.26562c0,56.55469 45.84375,102.40235 102.39844,102.40235s102.39844,-45.84766 102.39844,-102.40235zm-42.66406,-110.92968c14.13671,0 25.59765,11.46093 25.59765,25.59765c0,14.14063 -11.46094,25.60157 -25.59765,25.60157c-14.14063,0 -25.60157,-11.46094 -25.60157,-25.60157c0.01563,-14.13281 11.46875,-25.58203 25.60157,-25.59765zm-145.06641,25.59765c0,-14.13672 11.46094,-25.59765 25.59766,-25.59765c14.14062,0 25.60156,11.46093 25.60156,25.59765c0,14.14063 -11.46094,25.60157 -25.60156,25.60157c-14.13282,-0.01563 -25.58204,-11.46875 -25.59766,-25.60157zm85.33203,170.66797c-41.27344,0 -74.95703,-37.61328 -76.64062,-84.53906c-0.06641,-0.26172 -0.1211,-0.52734 -0.16016,-0.79688c0,-0.17968 0.09375,-0.33203 0.10547,-0.51171c-0.01953,-0.78125 -0.10547,-1.54297 -0.10547,-2.33204c0,-8.38281 1.04687,-16.73046 3.10937,-24.85546c0.96094,-3.78125 4.36719,-6.4336 8.26954,-6.4336l130.84375,0c3.90234,0 7.30859,2.65235 8.26953,6.4336c2.0625,8.125 3.10937,16.47265 3.10937,24.85546c0,0.78907 -0.08594,1.55078 -0.10547,2.33594c0.01172,0.17578 0.10547,0.32813 0.10547,0.51172c-0.03906,0.26953 -0.09375,0.53516 -0.16015,0.79688c-1.6836,46.92187 -35.36719,84.53515 -76.64063,84.53515zm0,0"/>
  </g>
 </g>
</svg>